# xmcd CD database file
#
# Track frame offsets:
#	150
#	13768
#	27969
#	42219
#	58228
#	91177
#	108012
#	121937
#	135657
#	149190
#	169464
#
# Disc length: 2473 seconds
#
# Revision: 0
# Processed by: cddbd v1.5.2PL0 Copyright (c) Steve Scherf et al.
# Submitted via: CDex 1.70beta2
#
DISCID=9909a70b
DTITLE=Acid Drinkers - Fishdick
DYEAR=2008
DGENRE=Thrash Metal
TTITLE0=Acid Drinkers - Ace Of Spades
TTITLE1=Acid Drinkers - Oh, No! Bruno
TTITLE2=Acid Drinkers - Deuce
TTITLE3=Acid Drinkers - N.I.B.
TTITLE4=Acid Drinkers - Another Brick In The Wall
TTITLE5=Acid Drinkers - Whole Lotta Rosie
TTITLE6=Acid Drinkers - Run Run Away
TTITLE7=Acid Drinkers - Fuckin' The Tiger
TTITLE8=Acid Drinkers - Highway Star
TTITLE9=Acid Drinkers - Balada
TTITLE10=Acid Drinkers - N.I.B.
EXTD=YEAR: 2008
EXTT0=
EXTT1=
EXTT2=
EXTT3=
EXTT4=
EXTT5=
EXTT6=
EXTT7=
EXTT8=
EXTT9=
EXTT10=
PLAYORDER=
